{
  "accessors": [
    {
      "bufferView": 2,
      "componentType": 5126,
      "count": 65532,
      "max": [
        5.964273452758789,
        -0.26888248324394226,
        3.8811068534851074
      ],
      "min": [
        -4.448217391967773,
        -8.995492935180664,
        -3.9339771270751953
      ],
      "type": "VEC3"
    },
    {
      "bufferView": 2,
      "byteOffset": 786384,
      "componentType": 5126,
      "count": 65532,
      "max": [
        0.9999761581420898,
        0.9999849200248718,
        0.9999748468399048
      ],
      "min": [
        -0.9999539852142334,
        -1.0,
        -0.999977171421051
      ],
      "type": "VEC3"
    },
    {
      "bufferView": 1,
      "componentType": 5126,
      "count": 65532,
      "max": [
        0.999754011631012,
        0.9909669756889343
      ],
      "min": [
        0.00024399999529123306,
        0.0002519999979995191
      ],
      "type": "VEC2"
    },
    {
      "bufferView": 0,
      "componentType": 5125,
      "count": 248979,
      "type": "SCALAR"
    },
    {
      "bufferView": 2,
      "byteOffset": 1572768,
      "componentType": 5126,
      "count": 10778,
      "max": [
        3.4533145427703857,
        -2.221750497817993,
        1.930128574371338
      ],
      "min": [
        -1.1830435991287231,
        -8.995491981506348,
        -3.7144792079925537
      ],
      "type": "VEC3"
    },
    {
      "bufferView": 2,
      "byteOffset": 1702104,
      "componentType": 5126,
      "count": 10778,
      "max": [
        0.9999067783355713,
        0.9996488094329834,
        0.9995315074920654
      ],
      "min": [
        -0.9999709725379944,
        -0.9997250437736511,
        -0.9999719858169556
      ],
      "type": "VEC3"
    },
    {
      "bufferView": 1,
      "byteOffset": 524256,
      "componentType": 5126,
      "count": 10778,
      "max": [
        0.9996939897537231,
        0.6538559794425964
      ],
      "min": [
        0.00024399999529123306,
        0.00027799999224953353
      ],
      "type": "VEC2"
    },
    {
      "bufferView": 0,
      "byteOffset": 995916,
      "componentType": 5125,
      "count": 27996,
      "type": "SCALAR"
    }
  ],
  "asset": {
    "extras": {
      "author": "pro3D (https://sketchfab.com/TadasZiziunas)",
      "license": "CC-BY-4.0 (http://creativecommons.org/licenses/by/4.0/)",
      "source": "https://sketchfab.com/3d-models/birutes-kalno-koplycia-35ef2efa2efb4162af36d6ee68f7b541",
      "title": "Birutės kalno koplyčia"
    },
    "generator": "Sketchfab-14.62.0",
    "version": "2.0"
  },
  "bufferViews": [
    {
      "buffer": 0,
      "byteLength": 1107900,
      "name": "floatBufferViews",
      "target": 34963
    },
    {
      "buffer": 0,
      "byteLength": 610480,
      "byteOffset": 1107900,
      "byteStride": 8,
      "name": "floatBufferViews",
      "target": 34962
    },
    {
      "buffer": 0,
      "byteLength": 1831440,
      "byteOffset": 1718380,
      "byteStride": 12,
      "name": "floatBufferViews",
      "target": 34962
    }
  ],
  "buffers": [
    {
      "byteLength": 3549820,
      "uri": "scene.bin"
    }
  ],
  "extensionsUsed": [
    "KHR_materials_unlit"
  ],
  "images": [
    {
      "uri": "apjungtas_Model_8_baseColor.jpg"
    }
  ],
  "materials": [
    {
      "extensions": {
        "KHR_materials_unlit": {}
      },
      "name": "apjungtas_Model_8",
      "pbrMetallicRoughness": {
        "baseColorTexture": {
          "index": 0
        },
        "metallicFactor": 0.0
      }
    }
  ],
  "meshes": [
    {
      "name": "Object_0",
      "primitives": [
        {
          "attributes": {
            "NORMAL": 1,
            "POSITION": 0,
            "TEXCOORD_0": 2
          },
          "indices": 3,
          "material": 0,
          "mode": 4
        }
      ]
    },
    {
      "name": "Object_1",
      "primitives": [
        {
          "attributes": {
            "NORMAL": 5,
            "POSITION": 4,
            "TEXCOORD_0": 6
          },
          "indices": 7,
          "material": 0,
          "mode": 4
        }
      ]
    }
  ],
  "nodes": [
    {
      "children": [
        1
      ],
      "matrix": [
        -0.6871959820251874,
        0.005930804002879708,
        -0.0004391890558675935,
        0.0,
        -0.005940867117345927,
        -0.6869201465726533,
        0.019470035530169308,
        0.0,
        -0.00027096762171890595,
        0.019473103810443496,
        0.686945706614587,
        0.0,
        0.0,
        0.0,
        0.0,
        1.0
      ],
      "name": "Sketchfab_model"
    },
    {
      "children": [
        2,
        3
      ],
      "name": "apjungtas_Model_8.obj.cleaner.materialmerger.gles"
    },
    {
      "mesh": 0,
      "name": "Object_2"
    },
    {
      "mesh": 1,
      "name": "Object_3"
    }
  ],
  "samplers": [
    {
      "magFilter": 9729,
      "minFilter": 9987,
      "wrapS": 10497,
      "wrapT": 10497
    }
  ],
  "scene": 0,
  "scenes": [
    {
      "name": "Sketchfab_Scene",
      "nodes": [
        0
      ]
    }
  ],
  "textures": [
    {
      "sampler": 0,
      "source": 0
    }
  ]
}
