{"asset":{"generator":"glTF-Transform v2.4.6","version":"2.0","extras":{"author":"pro3D (https://sketchfab.com/TadasZiziunas)","license":"CC-BY-4.0 (http://creativecommons.org/licenses/by/4.0/)","source":"https://sketchfab.com/3d-models/birutes-kalno-koplycia-35ef2efa2efb4162af36d6ee68f7b541","title":"Birutės kalno koplyčia"}},"accessors":[{"type":"VEC3","componentType":5126,"count":65532,"max":[5.964273452758789,-0.26888248324394226,3.8811068534851074],"min":[-4.448217391967773,-8.995492935180664,-3.9339771270751953],"bufferView":0,"byteOffset":0},{"type":"VEC3","componentType":5126,"count":65532,"bufferView":0,"byteOffset":12},{"type":"VEC2","componentType":5126,"count":65532,"bufferView":0,"byteOffset":24},{"type":"VEC3","componentType":5126,"count":10778,"max":[3.4533145427703857,-2.221750497817993,1.930128574371338],"min":[-1.1830435991287231,-8.995491981506348,-3.7144792079925537],"bufferView":1,"byteOffset":0},{"type":"VEC3","componentType":5126,"count":10778,"bufferView":1,"byteOffset":12},{"type":"VEC2","componentType":5126,"count":10778,"bufferView":1,"byteOffset":24},{"type":"SCALAR","componentType":5125,"count":248979,"bufferView":2,"byteOffset":0},{"type":"SCALAR","componentType":5125,"count":27996,"bufferView":2,"byteOffset":995916}],"bufferViews":[{"buffer":0,"byteOffset":0,"byteLength":2097024,"byteStride":32,"target":34962},{"buffer":0,"byteOffset":2097024,"byteLength":344896,"byteStride":32,"target":34962},{"buffer":0,"byteOffset":2441920,"byteLength":1107900,"target":34963}],"samplers":[{"magFilter":9729,"minFilter":9987,"wrapS":10497,"wrapT":10497}],"textures":[{"source":0,"sampler":0}],"images":[{"mimeType":"image/jpg","uri":"image.jpg"}],"buffers":[{"uri":"model.bin","byteLength":3549820}],"materials":[{"name":"apjungtas_Model_8","pbrMetallicRoughness":{"metallicFactor":0,"baseColorTexture":{"index":0}},"extensions":{"KHR_materials_unlit":{}}}],"meshes":[{"name":"Object_0","primitives":[{"attributes":{"NORMAL":1,"POSITION":0,"TEXCOORD_0":2},"mode":4,"material":0,"indices":6}]},{"name":"Object_1","primitives":[{"attributes":{"NORMAL":4,"POSITION":3,"TEXCOORD_0":5},"mode":4,"material":0,"indices":7}]}],"nodes":[{"name":"Sketchfab_model","rotation":[-0.0002583717179193414,0.01416843106602318,0.9998902606650882,0.004319193475940294],"scale":[0.6872217146123287,0.6872216992740026,0.6872217102447203],"children":[1]},{"name":"apjungtas_Model_8.obj.cleaner.materialmerger.gles","children":[2,3]},{"name":"Object_2","mesh":0},{"name":"Object_3","mesh":1}],"scenes":[{"name":"Sketchfab_Scene","nodes":[0]}],"scene":0,"extensionsUsed":["KHR_materials_unlit"]}