{"asset":{"generator":"glTF-Transform v2.4.6","version":"2.0"},"accessors":[{"type":"SCALAR","componentType":5125,"count":276975,"bufferView":0,"byteOffset":0},{"name":"POSITION","type":"VEC3","componentType":5126,"count":236227,"max":[5.964273452758789,3.8811068534851074,8.995492935180664],"min":[-4.448217391967773,-3.9339771270751953,0.26888248324394226],"bufferView":1,"byteOffset":0},{"name":"TEXCOORD_0","type":"VEC2","componentType":5126,"count":236227,"bufferView":2,"byteOffset":0},{"name":"NORMAL","type":"VEC3","componentType":5126,"count":236227,"bufferView":3,"byteOffset":0}],"bufferViews":[{"buffer":0,"byteOffset":0,"byteLength":1107900,"target":34963},{"buffer":0,"byteOffset":1107900,"byteLength":2834724,"byteStride":12,"target":34962},{"buffer":0,"byteOffset":3942624,"byteLength":1889816,"byteStride":8,"target":34962},{"buffer":0,"byteOffset":5832440,"byteLength":2834724,"byteStride":12,"target":34962}],"samplers":[{"magFilter":9729,"minFilter":9729,"wrapS":10497,"wrapT":10497}],"textures":[{"source":0,"sampler":0}],"images":[{"mimeType":"image/jpeg","uri":"baseColor.jpg"}],"buffers":[{"uri":"model.bin","byteLength":8667164}],"materials":[{"name":"apjungtas_Model_8","pbrMetallicRoughness":{"roughnessFactor":0,"metallicFactor":0,"baseColorTexture":{"index":0}}}],"meshes":[{"primitives":[{"attributes":{"POSITION":1,"TEXCOORD_0":2,"NORMAL":3},"mode":4,"material":0,"indices":0}]}],"nodes":[{"name":"default","mesh":0}],"scenes":[{"nodes":[0]}],"scene":0}